<svg width="315" height="102" viewBox="0 0 315 102" fill="none" xmlns="http://www.w3.org/2000/svg">
<path d="M44.7884 76L35.044 40.3636H39.429L46.8764 69.3878H47.2244L54.8111 40.3636H59.6832L67.2699 69.3878H67.6179L75.0653 40.3636H79.4503L69.706 76H65.2514L57.3864 47.6023H57.108L49.2429 76H44.7884ZM92.9879 76.5568C90.4126 76.5568 88.1912 75.9884 86.3235 74.8516C84.4674 73.7031 83.0348 72.1023 82.0256 70.049C81.0279 67.9841 80.5291 65.5829 80.5291 62.8452C80.5291 60.1075 81.0279 57.6946 82.0256 55.6065C83.0348 53.5069 84.4384 51.8712 86.2365 50.6996C88.0462 49.5163 90.1574 48.9247 92.5703 48.9247C93.9624 48.9247 95.337 49.1567 96.6942 49.6207C98.0515 50.0848 99.2869 50.8388 100.401 51.8828C101.514 52.9152 102.402 54.2841 103.063 55.9893C103.724 57.6946 104.055 59.7943 104.055 62.2884V64.0284H83.4524V60.4787H99.8786C99.8786 58.9706 99.5769 57.625 98.9737 56.4418C98.3821 55.2585 97.5353 54.3247 96.4332 53.6403C95.3428 52.9558 94.0552 52.6136 92.5703 52.6136C90.9347 52.6136 89.5194 53.0196 88.3246 53.8317C87.1413 54.6321 86.2307 55.6761 85.5927 56.9638C84.9547 58.2514 84.6357 59.6319 84.6357 61.1051V63.4716C84.6357 65.4901 84.9837 67.2011 85.6797 68.6048C86.3873 69.9968 87.3675 71.0582 88.6204 71.7891C89.8732 72.5083 91.3291 72.8679 92.9879 72.8679C94.0668 72.8679 95.0412 72.7171 95.9112 72.4155C96.7929 72.1023 97.5527 71.6383 98.1907 71.0234C98.8287 70.397 99.3217 69.6198 99.6697 68.6918L103.637 69.8054C103.219 71.151 102.518 72.3343 101.532 73.3551C100.546 74.3643 99.3275 75.1532 97.8775 75.7216C96.4274 76.2784 94.7976 76.5568 92.9879 76.5568ZM110.858 76V40.3636H114.965V53.5185H115.313C115.614 53.0545 116.032 52.4628 116.566 51.7436C117.111 51.0128 117.888 50.3632 118.897 49.7947C119.918 49.2147 121.299 48.9247 123.039 48.9247C125.289 48.9247 127.273 49.4873 128.99 50.6126C130.707 51.7378 132.046 53.3329 133.009 55.3977C133.972 57.4626 134.453 59.8987 134.453 62.706C134.453 65.5365 133.972 67.9899 133.009 70.0664C132.046 72.1313 130.712 73.7321 129.007 74.869C127.302 75.9942 125.336 76.5568 123.108 76.5568C121.391 76.5568 120.017 76.2726 118.984 75.7042C117.952 75.1242 117.157 74.4687 116.6 73.7379C116.044 72.9955 115.614 72.3807 115.313 71.8935H114.826V76H110.858ZM114.895 62.6364C114.895 64.6548 115.191 66.4355 115.783 67.9783C116.374 69.5096 117.239 70.7102 118.375 71.5803C119.512 72.4387 120.904 72.8679 122.551 72.8679C124.268 72.8679 125.701 72.4155 126.849 71.5107C128.009 70.5942 128.879 69.3646 129.46 67.8217C130.051 66.2673 130.347 64.5388 130.347 62.6364C130.347 60.7571 130.057 59.0634 129.477 57.5554C128.908 56.0357 128.044 54.8351 126.884 53.9535C125.736 53.0602 124.292 52.6136 122.551 52.6136C120.881 52.6136 119.477 53.037 118.341 53.8839C117.204 54.7191 116.345 55.8907 115.765 57.3988C115.185 58.8952 114.895 60.6411 114.895 62.6364ZM223.423 76V49.2727H227.39V53.3097H227.668C228.156 51.9872 229.037 50.9142 230.313 50.0906C231.589 49.2669 233.028 48.8551 234.629 48.8551C234.93 48.8551 235.307 48.8609 235.76 48.8725C236.212 48.8841 236.554 48.9015 236.786 48.9247V53.1009C236.647 53.0661 236.328 53.0138 235.829 52.9442C235.342 52.863 234.826 52.8224 234.281 52.8224C232.981 52.8224 231.821 53.0951 230.8 53.6403C229.791 54.1739 228.991 54.9163 228.399 55.8675C227.819 56.8072 227.529 57.8802 227.529 59.0866V76H223.423ZM252.047 76.5568C249.471 76.5568 247.25 75.9884 245.382 74.8516C243.526 73.7031 242.093 72.1023 241.084 70.049C240.087 67.9841 239.588 65.5829 239.588 62.8452C239.588 60.1075 240.087 57.6946 241.084 55.6065C242.093 53.5069 243.497 51.8712 245.295 50.6996C247.105 49.5163 249.216 48.9247 251.629 48.9247C253.021 48.9247 254.396 49.1567 255.753 49.6207C257.11 50.0848 258.346 50.8388 259.459 51.8828C260.573 52.9152 261.46 54.2841 262.121 55.9893C262.783 57.6946 263.113 59.7943 263.113 62.2884V64.0284H242.511V60.4787H258.937C258.937 58.9706 258.636 57.625 258.032 56.4418C257.441 55.2585 256.594 54.3247 255.492 53.6403C254.401 52.9558 253.114 52.6136 251.629 52.6136C249.993 52.6136 248.578 53.0196 247.383 53.8317C246.2 54.6321 245.289 55.6761 244.651 56.9638C244.013 58.2514 243.694 59.6319 243.694 61.1051V63.4716C243.694 65.4901 244.042 67.2011 244.738 68.6048C245.446 69.9968 246.426 71.0582 247.679 71.7891C248.932 72.5083 250.388 72.8679 252.047 72.8679C253.125 72.8679 254.1 72.7171 254.97 72.4155C255.851 72.1023 256.611 71.6383 257.249 71.0234C257.887 70.397 258.38 69.6198 258.728 68.6918L262.696 69.8054C262.278 71.151 261.576 72.3343 260.59 73.3551C259.604 74.3643 258.386 75.1532 256.936 75.7216C255.486 76.2784 253.856 76.5568 252.047 76.5568ZM280.566 76.5568C277.991 76.5568 275.769 75.9884 273.902 74.8516C272.046 73.7031 270.613 72.1023 269.604 70.049C268.606 67.9841 268.107 65.5829 268.107 62.8452C268.107 60.1075 268.606 57.6946 269.604 55.6065C270.613 53.5069 272.017 51.8712 273.815 50.6996C275.624 49.5163 277.736 48.9247 280.148 48.9247C281.54 48.9247 282.915 49.1567 284.272 49.6207C285.63 50.0848 286.865 50.8388 287.979 51.8828C289.092 52.9152 289.98 54.2841 290.641 55.9893C291.302 57.6946 291.633 59.7943 291.633 62.2884V64.0284H271.031V60.4787H287.457C287.457 58.9706 287.155 57.625 286.552 56.4418C285.96 55.2585 285.113 54.3247 284.011 53.6403C282.921 52.9558 281.633 52.6136 280.148 52.6136C278.513 52.6136 277.098 53.0196 275.903 53.8317C274.719 54.6321 273.809 55.6761 273.171 56.9638C272.533 58.2514 272.214 59.6319 272.214 61.1051V63.4716C272.214 65.4901 272.562 67.2011 273.258 68.6048C273.965 69.9968 274.946 71.0582 276.199 71.7891C277.451 72.5083 278.907 72.8679 280.566 72.8679C281.645 72.8679 282.619 72.7171 283.489 72.4155C284.371 72.1023 285.131 71.6383 285.769 71.0234C286.407 70.397 286.9 69.6198 287.248 68.6918L291.215 69.8054C290.798 71.151 290.096 72.3343 289.11 73.3551C288.124 74.3643 286.906 75.1532 285.456 75.7216C284.006 76.2784 282.376 76.5568 280.566 76.5568Z" fill="white"/>
<path d="M204.921 34.7908H176.079C171.998 34.7908 170.58 32.0587 172.966 28.7387L187.387 8.54208C189.082 6.12125 191.918 6.12125 193.578 8.54208L207.999 28.7387C210.42 32.0587 209.002 34.7908 204.921 34.7908Z" stroke="#2D8E00" stroke-width="3" stroke-linecap="round" stroke-linejoin="round"/>
<path d="M213.947 54.1921C217.164 58.6187 215.296 62.25 209.832 62.25H171.203C165.738 62.25 163.871 58.6187 167.087 54.1921L180.886 34.7908H200.149L204.921 41.5" stroke="#2D8E00" stroke-width="3" stroke-linecap="round" stroke-linejoin="round"/>
<path d="M190.5 76.0833V62.25" stroke="#2D8E00" stroke-width="3" stroke-linecap="round" stroke-linejoin="round"/>
</svg>
